<mxfile host="Electron" agent="Mozilla/5.0 (Windows NT 10.0; Win64; x64) AppleWebKit/537.36 (KHTML, like Gecko) draw.io/24.7.17 Chrome/128.0.6613.36 Electron/32.0.1 Safari/537.36" version="24.7.17">
  <diagram name="Page-1" id="4fvy6pTnMWF2Ge97SXh_">
    <mxGraphModel dx="875" dy="524" grid="1" gridSize="10" guides="1" tooltips="1" connect="1" arrows="1" fold="1" page="1" pageScale="1" pageWidth="827" pageHeight="1169" math="0" shadow="0">
      <root>
        <mxCell id="0" />
        <mxCell id="1" parent="0" />
        <mxCell id="ZvrcVO5mwN7p5Oju3sw5-1" value="PROFESOR" style="whiteSpace=wrap;html=1;align=center;" parent="1" vertex="1">
          <mxGeometry x="350" y="160" width="100" height="40" as="geometry" />
        </mxCell>
        <mxCell id="ZvrcVO5mwN7p5Oju3sw5-2" value="DNI" style="ellipse;whiteSpace=wrap;html=1;align=center;" parent="1" vertex="1">
          <mxGeometry x="240" y="80" width="100" height="40" as="geometry" />
        </mxCell>
        <mxCell id="ZvrcVO5mwN7p5Oju3sw5-3" value="direccion" style="ellipse;whiteSpace=wrap;html=1;align=center;" parent="1" vertex="1">
          <mxGeometry x="460" y="80" width="100" height="40" as="geometry" />
        </mxCell>
        <mxCell id="ZvrcVO5mwN7p5Oju3sw5-4" value="nombre" style="ellipse;whiteSpace=wrap;html=1;align=center;" parent="1" vertex="1">
          <mxGeometry x="350" y="80" width="100" height="40" as="geometry" />
        </mxCell>
        <mxCell id="ZvrcVO5mwN7p5Oju3sw5-5" value="telf" style="ellipse;whiteSpace=wrap;html=1;align=center;" parent="1" vertex="1">
          <mxGeometry x="570" y="80" width="100" height="40" as="geometry" />
        </mxCell>
        <mxCell id="ZvrcVO5mwN7p5Oju3sw5-8" value="MODULO" style="whiteSpace=wrap;html=1;align=center;" parent="1" vertex="1">
          <mxGeometry x="200" y="320" width="80" height="40" as="geometry" />
        </mxCell>
        <mxCell id="ZvrcVO5mwN7p5Oju3sw5-9" value="&lt;u&gt;codMod&lt;/u&gt;" style="ellipse;whiteSpace=wrap;html=1;align=center;" parent="1" vertex="1">
          <mxGeometry x="80" y="295" width="100" height="40" as="geometry" />
        </mxCell>
        <mxCell id="ZvrcVO5mwN7p5Oju3sw5-10" value="nombre" style="ellipse;whiteSpace=wrap;html=1;align=center;" parent="1" vertex="1">
          <mxGeometry x="80" y="345" width="100" height="40" as="geometry" />
        </mxCell>
        <mxCell id="ZvrcVO5mwN7p5Oju3sw5-11" value="ALUMNO" style="whiteSpace=wrap;html=1;align=center;" parent="1" vertex="1">
          <mxGeometry x="530" y="320" width="80" height="40" as="geometry" />
        </mxCell>
        <mxCell id="ZvrcVO5mwN7p5Oju3sw5-12" value="&lt;u&gt;nExped&lt;/u&gt;" style="ellipse;whiteSpace=wrap;html=1;align=center;" parent="1" vertex="1">
          <mxGeometry x="650" y="245" width="100" height="40" as="geometry" />
        </mxCell>
        <mxCell id="ZvrcVO5mwN7p5Oju3sw5-13" value="Matricular" style="shape=rhombus;perimeter=rhombusPerimeter;whiteSpace=wrap;html=1;align=center;" parent="1" vertex="1">
          <mxGeometry x="340" y="310" width="120" height="60" as="geometry" />
        </mxCell>
        <mxCell id="ZvrcVO5mwN7p5Oju3sw5-14" value="fechaNac" style="ellipse;whiteSpace=wrap;html=1;align=center;" parent="1" vertex="1">
          <mxGeometry x="650" y="395" width="100" height="40" as="geometry" />
        </mxCell>
        <mxCell id="ZvrcVO5mwN7p5Oju3sw5-15" value="nombre" style="ellipse;whiteSpace=wrap;html=1;align=center;" parent="1" vertex="1">
          <mxGeometry x="650" y="295" width="100" height="40" as="geometry" />
        </mxCell>
        <mxCell id="ZvrcVO5mwN7p5Oju3sw5-16" value="apellidos" style="ellipse;whiteSpace=wrap;html=1;align=center;" parent="1" vertex="1">
          <mxGeometry x="650" y="345" width="100" height="40" as="geometry" />
        </mxCell>
        <mxCell id="ZvrcVO5mwN7p5Oju3sw5-17" value="Impartir" style="shape=rhombus;perimeter=rhombusPerimeter;whiteSpace=wrap;html=1;align=center;" parent="1" vertex="1">
          <mxGeometry x="180" y="150" width="120" height="60" as="geometry" />
        </mxCell>
        <mxCell id="ZvrcVO5mwN7p5Oju3sw5-18" value="" style="endArrow=none;html=1;rounded=0;exitX=1;exitY=0.5;exitDx=0;exitDy=0;entryX=0;entryY=0.5;entryDx=0;entryDy=0;edgeStyle=orthogonalEdgeStyle;verticalAlign=bottom;" parent="1" source="ZvrcVO5mwN7p5Oju3sw5-17" target="ZvrcVO5mwN7p5Oju3sw5-1" edge="1">
          <mxGeometry relative="1" as="geometry">
            <mxPoint x="320" y="210" as="sourcePoint" />
            <mxPoint x="574" y="460" as="targetPoint" />
          </mxGeometry>
        </mxCell>
        <mxCell id="ZvrcVO5mwN7p5Oju3sw5-25" value="(0, 1)" style="edgeLabel;html=1;align=center;verticalAlign=middle;resizable=0;points=[];" parent="ZvrcVO5mwN7p5Oju3sw5-18" vertex="1" connectable="0">
          <mxGeometry x="-0.2867" y="-2" relative="1" as="geometry">
            <mxPoint x="3" y="-2" as="offset" />
          </mxGeometry>
        </mxCell>
        <mxCell id="ZvrcVO5mwN7p5Oju3sw5-19" value="" style="endArrow=none;html=1;rounded=0;exitX=0.5;exitY=1;exitDx=0;exitDy=0;entryX=0.5;entryY=0;entryDx=0;entryDy=0;edgeStyle=orthogonalEdgeStyle;verticalAlign=bottom;" parent="1" source="ZvrcVO5mwN7p5Oju3sw5-17" target="ZvrcVO5mwN7p5Oju3sw5-8" edge="1">
          <mxGeometry relative="1" as="geometry">
            <mxPoint x="320" y="210" as="sourcePoint" />
            <mxPoint x="574" y="460" as="targetPoint" />
          </mxGeometry>
        </mxCell>
        <mxCell id="ZvrcVO5mwN7p5Oju3sw5-23" value="(0, M)" style="edgeLabel;html=1;align=center;verticalAlign=middle;resizable=0;points=[];" parent="ZvrcVO5mwN7p5Oju3sw5-19" vertex="1" connectable="0">
          <mxGeometry x="0.1273" relative="1" as="geometry">
            <mxPoint y="-7" as="offset" />
          </mxGeometry>
        </mxCell>
        <mxCell id="ZvrcVO5mwN7p5Oju3sw5-20" value="" style="endArrow=none;html=1;rounded=0;exitX=1;exitY=0.5;exitDx=0;exitDy=0;entryX=0;entryY=0.5;entryDx=0;entryDy=0;edgeStyle=orthogonalEdgeStyle;verticalAlign=bottom;" parent="1" source="ZvrcVO5mwN7p5Oju3sw5-8" target="ZvrcVO5mwN7p5Oju3sw5-13" edge="1">
          <mxGeometry relative="1" as="geometry">
            <mxPoint x="320" y="210" as="sourcePoint" />
            <mxPoint x="574" y="460" as="targetPoint" />
          </mxGeometry>
        </mxCell>
        <mxCell id="ZvrcVO5mwN7p5Oju3sw5-26" value="(1, M)" style="edgeLabel;html=1;align=center;verticalAlign=middle;resizable=0;points=[];" parent="ZvrcVO5mwN7p5Oju3sw5-20" vertex="1" connectable="0">
          <mxGeometry x="-0.1" relative="1" as="geometry">
            <mxPoint x="3" as="offset" />
          </mxGeometry>
        </mxCell>
        <mxCell id="ZvrcVO5mwN7p5Oju3sw5-21" value="" style="endArrow=none;html=1;rounded=0;exitX=0;exitY=0.5;exitDx=0;exitDy=0;entryX=1;entryY=0.5;entryDx=0;entryDy=0;edgeStyle=orthogonalEdgeStyle;verticalAlign=bottom;" parent="1" source="ZvrcVO5mwN7p5Oju3sw5-11" target="ZvrcVO5mwN7p5Oju3sw5-13" edge="1">
          <mxGeometry relative="1" as="geometry">
            <mxPoint x="290" y="350" as="sourcePoint" />
            <mxPoint x="350" y="350" as="targetPoint" />
          </mxGeometry>
        </mxCell>
        <mxCell id="ZvrcVO5mwN7p5Oju3sw5-27" value="(0, M)" style="edgeLabel;html=1;align=center;verticalAlign=middle;resizable=0;points=[];" parent="ZvrcVO5mwN7p5Oju3sw5-21" vertex="1" connectable="0">
          <mxGeometry x="0.0857" y="-3" relative="1" as="geometry">
            <mxPoint y="3" as="offset" />
          </mxGeometry>
        </mxCell>
        <mxCell id="ZvrcVO5mwN7p5Oju3sw5-29" value="&lt;u&gt;codProf&lt;/u&gt;" style="ellipse;whiteSpace=wrap;html=1;align=center;" parent="1" vertex="1">
          <mxGeometry x="130" y="80" width="100" height="40" as="geometry" />
        </mxCell>
        <mxCell id="duR4hzgFIK4aZwdgYbMA-1" value="" style="endArrow=none;html=1;rounded=0;entryX=0.5;entryY=0;entryDx=0;entryDy=0;exitX=0.5;exitY=1;exitDx=0;exitDy=0;" edge="1" parent="1" source="ZvrcVO5mwN7p5Oju3sw5-4" target="ZvrcVO5mwN7p5Oju3sw5-1">
          <mxGeometry width="50" height="50" relative="1" as="geometry">
            <mxPoint x="390" y="350" as="sourcePoint" />
            <mxPoint x="440" y="300" as="targetPoint" />
          </mxGeometry>
        </mxCell>
        <mxCell id="duR4hzgFIK4aZwdgYbMA-2" value="" style="endArrow=none;html=1;rounded=0;entryX=0.5;entryY=0;entryDx=0;entryDy=0;exitX=1;exitY=1;exitDx=0;exitDy=0;" edge="1" parent="1" source="ZvrcVO5mwN7p5Oju3sw5-2" target="ZvrcVO5mwN7p5Oju3sw5-1">
          <mxGeometry width="50" height="50" relative="1" as="geometry">
            <mxPoint x="410" y="130" as="sourcePoint" />
            <mxPoint x="410" y="170" as="targetPoint" />
          </mxGeometry>
        </mxCell>
        <mxCell id="duR4hzgFIK4aZwdgYbMA-3" value="" style="endArrow=none;html=1;rounded=0;entryX=0.5;entryY=0;entryDx=0;entryDy=0;exitX=0;exitY=1;exitDx=0;exitDy=0;" edge="1" parent="1" source="ZvrcVO5mwN7p5Oju3sw5-3" target="ZvrcVO5mwN7p5Oju3sw5-1">
          <mxGeometry width="50" height="50" relative="1" as="geometry">
            <mxPoint x="335" y="124" as="sourcePoint" />
            <mxPoint x="410" y="170" as="targetPoint" />
          </mxGeometry>
        </mxCell>
        <mxCell id="duR4hzgFIK4aZwdgYbMA-4" value="" style="endArrow=none;html=1;rounded=0;entryX=0.5;entryY=0;entryDx=0;entryDy=0;exitX=0;exitY=1;exitDx=0;exitDy=0;" edge="1" parent="1" source="ZvrcVO5mwN7p5Oju3sw5-5" target="ZvrcVO5mwN7p5Oju3sw5-1">
          <mxGeometry width="50" height="50" relative="1" as="geometry">
            <mxPoint x="485" y="124" as="sourcePoint" />
            <mxPoint x="410" y="170" as="targetPoint" />
          </mxGeometry>
        </mxCell>
        <mxCell id="duR4hzgFIK4aZwdgYbMA-5" value="" style="endArrow=none;html=1;rounded=0;entryX=0.5;entryY=0;entryDx=0;entryDy=0;exitX=1;exitY=1;exitDx=0;exitDy=0;" edge="1" parent="1" source="ZvrcVO5mwN7p5Oju3sw5-29" target="ZvrcVO5mwN7p5Oju3sw5-1">
          <mxGeometry width="50" height="50" relative="1" as="geometry">
            <mxPoint x="595" y="124" as="sourcePoint" />
            <mxPoint x="410" y="170" as="targetPoint" />
          </mxGeometry>
        </mxCell>
        <mxCell id="duR4hzgFIK4aZwdgYbMA-6" value="" style="endArrow=none;html=1;rounded=0;entryX=1;entryY=1;entryDx=0;entryDy=0;exitX=0;exitY=0.5;exitDx=0;exitDy=0;" edge="1" parent="1" source="ZvrcVO5mwN7p5Oju3sw5-8" target="ZvrcVO5mwN7p5Oju3sw5-9">
          <mxGeometry width="50" height="50" relative="1" as="geometry">
            <mxPoint x="225" y="124" as="sourcePoint" />
            <mxPoint x="410" y="170" as="targetPoint" />
          </mxGeometry>
        </mxCell>
        <mxCell id="duR4hzgFIK4aZwdgYbMA-7" value="" style="endArrow=none;html=1;rounded=0;entryX=1;entryY=0;entryDx=0;entryDy=0;exitX=0;exitY=0.5;exitDx=0;exitDy=0;" edge="1" parent="1" source="ZvrcVO5mwN7p5Oju3sw5-8" target="ZvrcVO5mwN7p5Oju3sw5-10">
          <mxGeometry width="50" height="50" relative="1" as="geometry">
            <mxPoint x="210" y="350" as="sourcePoint" />
            <mxPoint x="155" y="339" as="targetPoint" />
          </mxGeometry>
        </mxCell>
        <mxCell id="duR4hzgFIK4aZwdgYbMA-8" value="" style="endArrow=none;html=1;rounded=0;entryX=1;entryY=0.5;entryDx=0;entryDy=0;exitX=0;exitY=0.5;exitDx=0;exitDy=0;" edge="1" parent="1" source="ZvrcVO5mwN7p5Oju3sw5-15" target="ZvrcVO5mwN7p5Oju3sw5-11">
          <mxGeometry width="50" height="50" relative="1" as="geometry">
            <mxPoint x="210" y="350" as="sourcePoint" />
            <mxPoint x="175" y="339" as="targetPoint" />
          </mxGeometry>
        </mxCell>
        <mxCell id="duR4hzgFIK4aZwdgYbMA-9" value="" style="endArrow=none;html=1;rounded=0;entryX=1;entryY=0.5;entryDx=0;entryDy=0;exitX=0;exitY=0.5;exitDx=0;exitDy=0;" edge="1" parent="1" source="ZvrcVO5mwN7p5Oju3sw5-16" target="ZvrcVO5mwN7p5Oju3sw5-11">
          <mxGeometry width="50" height="50" relative="1" as="geometry">
            <mxPoint x="660" y="325" as="sourcePoint" />
            <mxPoint x="620" y="350" as="targetPoint" />
          </mxGeometry>
        </mxCell>
        <mxCell id="duR4hzgFIK4aZwdgYbMA-10" value="" style="endArrow=none;html=1;rounded=0;entryX=1;entryY=0.5;entryDx=0;entryDy=0;exitX=0;exitY=0;exitDx=0;exitDy=0;" edge="1" parent="1" source="ZvrcVO5mwN7p5Oju3sw5-14" target="ZvrcVO5mwN7p5Oju3sw5-11">
          <mxGeometry width="50" height="50" relative="1" as="geometry">
            <mxPoint x="660" y="375" as="sourcePoint" />
            <mxPoint x="620" y="350" as="targetPoint" />
          </mxGeometry>
        </mxCell>
        <mxCell id="duR4hzgFIK4aZwdgYbMA-11" value="" style="endArrow=none;html=1;rounded=0;entryX=1;entryY=0.5;entryDx=0;entryDy=0;exitX=0;exitY=1;exitDx=0;exitDy=0;" edge="1" parent="1" source="ZvrcVO5mwN7p5Oju3sw5-12" target="ZvrcVO5mwN7p5Oju3sw5-11">
          <mxGeometry width="50" height="50" relative="1" as="geometry">
            <mxPoint x="675" y="411" as="sourcePoint" />
            <mxPoint x="620" y="350" as="targetPoint" />
          </mxGeometry>
        </mxCell>
      </root>
    </mxGraphModel>
  </diagram>
</mxfile>
